<svg xmlns="http://www.w3.org/2000/svg" xmlns:xlink="http://www.w3.org/1999/xlink" width="505.158295" height="202.856354" viewBox="0 0 505.158 202.856"><path d="M0 0L20 143" fill="none" stroke="#00AB7D" stroke-opacity="1.000000" stroke-width="9" stroke-linejoin="round" stroke-linecap="round" stroke-dasharray="0 0" transform="matrix(1 0 0 1 18.7534 18.7534)"/><path d="M0 13L18 0" fill="none" stroke="#00AB7D" stroke-opacity="1.000000" stroke-width="9" stroke-linejoin="round" stroke-linecap="round" stroke-dasharray="0 0" transform="matrix(1 0 0 1 38.7592 149.6)"/><path d="M0 0L17.1224 24.9054" fill="none" stroke="#00AB7D" stroke-opacity="1.000000" stroke-width="9" stroke-linejoin="round" stroke-linecap="round" stroke-dasharray="0 0" transform="matrix(1 0 0 1 57.7533 149.588)"/><path d="M0 147L22 0" fill="none" stroke="#0096F2" stroke-opacity="1.000000" stroke-width="9" stroke-linejoin="round" stroke-linecap="round" stroke-dasharray="0 0" transform="matrix(1 0 0 1 74.7651 27.1089)"/><path d="M0 0L20 156" fill="none" stroke="#0096F2" stroke-opacity="1.000000" stroke-width="9" stroke-linejoin="round" stroke-linecap="round" stroke-dasharray="0 0" transform="matrix(1 0 0 1 97.2563 28.0679)"/><path d="M0 42L17 0" fill="none" stroke="#0096F2" stroke-opacity="1.000000" stroke-width="9" stroke-linejoin="round" stroke-linecap="round" stroke-dasharray="0 0" transform="matrix(1 0 0 1 117.748 142.103)"/><path d="M0 16L16 0" fill="none" stroke="#0096F2" stroke-opacity="1.000000" stroke-width="9" stroke-linejoin="round" stroke-linecap="round" stroke-dasharray="0 0" transform="matrix(1 0 0 1 135.262 125.588)"/><path d="M0 0L23 3" fill="none" stroke="#0096F2" stroke-opacity="1.000000" stroke-width="9" stroke-linejoin="round" stroke-linecap="round" stroke-dasharray="0 0" transform="matrix(1 0 0 1 151.777 125.553)"/><path d="M36.7188 18.4375L22.0938 18.4375L22.0938 59L16.125 59L16.125 18.4375L1.53125 18.4375L1.53125 13.5L36.7188 13.5L36.7188 18.4375ZM48.8438 59L43.0625 59L43.0625 25.1875L48.8438 25.1875L48.8438 59ZM42.5938 16.2188Q42.5938 14.8125 43.4531 13.8438Q44.3125 12.875 46 12.875Q47.6875 12.875 48.5625 13.8438Q49.4375 14.8125 49.4375 16.2188Q49.4375 17.625 48.5625 18.5625Q47.6875 19.5 46 19.5Q44.3125 19.5 43.4531 18.5625Q42.5938 17.625 42.5938 16.2188ZM63.5312 25.1875L63.6875 28.9375Q67.4062 24.5625 73.7188 24.5625Q80.8125 24.5625 83.375 30Q85.0625 27.5625 87.7656 26.0625Q90.4688 24.5625 94.1562 24.5625Q105.281 24.5625 105.469 36.3438L105.469 59L99.6875 59L99.6875 36.6875Q99.6875 33.0625 98.0312 31.2656Q96.375 29.4688 92.4688 29.4688Q89.25 29.4688 87.125 31.3906Q85 33.3125 84.6562 36.5625L84.6562 59L78.8438 59L78.8438 36.8438Q78.8438 29.4688 71.625 29.4688Q65.9375 29.4688 63.8438 34.3125L63.8438 59L58.0625 59L58.0625 25.1875L63.5312 25.1875ZM128.219 59.625Q121.344 59.625 117.031 55.1094Q112.719 50.5938 112.719 43.0312L112.719 41.9688Q112.719 36.9375 114.641 32.9844Q116.562 29.0312 120.016 26.7969Q123.469 24.5625 127.5 24.5625Q134.094 24.5625 137.75 28.9062Q141.406 33.25 141.406 41.3438L141.406 43.75L118.5 43.75Q118.625 48.75 121.422 51.8281Q124.219 54.9062 128.531 54.9062Q131.594 54.9062 133.719 53.6562Q135.844 52.4062 137.438 50.3438L140.969 53.0938Q136.719 59.625 128.219 59.625ZM127.5 29.3125Q124 29.3125 121.625 31.8594Q119.25 34.4062 118.688 39L135.625 39L135.625 38.5625Q135.375 34.1562 133.25 31.7344Q131.125 29.3125 127.5 29.3125Z" fill="#00AB7D" fill-opacity="1.000000" transform="matrix(1 0 0 1 185.912 83.1572)"/><path d="M162.406 38.7188Q154.688 36.5 151.172 33.2656Q147.656 30.0312 147.656 25.2812Q147.656 19.9062 151.953 16.3906Q156.25 12.875 163.125 12.875Q167.812 12.875 171.484 14.6875Q175.156 16.5 177.172 19.6875Q179.188 22.875 179.188 26.6562L173.156 26.6562Q173.156 22.5312 170.531 20.1719Q167.906 17.8125 163.125 17.8125Q158.688 17.8125 156.203 19.7656Q153.719 21.7188 153.719 25.1875Q153.719 27.9688 156.078 29.8906Q158.438 31.8125 164.109 33.4062Q169.781 35 172.984 36.9219Q176.188 38.8438 177.734 41.4062Q179.281 43.9688 179.281 47.4375Q179.281 52.9688 174.969 56.2969Q170.656 59.625 163.438 59.625Q158.75 59.625 154.688 57.8281Q150.625 56.0312 148.422 52.9062Q146.219 49.7812 146.219 45.8125L152.25 45.8125Q152.25 49.9375 155.297 52.3281Q158.344 54.7188 163.438 54.7188Q168.188 54.7188 170.719 52.7812Q173.25 50.8438 173.25 47.5Q173.25 44.1562 170.906 42.3281Q168.562 40.5 162.406 38.7188ZM199.625 54.9062Q202.719 54.9062 205.031 53.0312Q207.344 51.1562 207.594 48.3438L213.062 48.3438Q212.906 51.25 211.062 53.875Q209.219 56.5 206.141 58.0625Q203.062 59.625 199.625 59.625Q192.719 59.625 188.641 55.0156Q184.562 50.4062 184.562 42.4062L184.562 41.4375Q184.562 36.5 186.375 32.6562Q188.188 28.8125 191.578 26.6875Q194.969 24.5625 199.594 24.5625Q205.281 24.5625 209.047 27.9688Q212.812 31.375 213.062 36.8125L207.594 36.8125Q207.344 33.5312 205.109 31.4219Q202.875 29.3125 199.594 29.3125Q195.188 29.3125 192.766 32.4844Q190.344 35.6562 190.344 41.6562L190.344 42.75Q190.344 48.5938 192.75 51.75Q195.156 54.9062 199.625 54.9062ZM218.031 41.7812Q218.031 36.8125 219.984 32.8438Q221.938 28.875 225.422 26.7188Q228.906 24.5625 233.375 24.5625Q240.281 24.5625 244.547 29.3438Q248.812 34.125 248.812 42.0625L248.812 42.4688Q248.812 47.4062 246.922 51.3281Q245.031 55.25 241.516 57.4375Q238 59.625 233.438 59.625Q226.562 59.625 222.297 54.8438Q218.031 50.0625 218.031 42.1875L218.031 41.7812ZM223.844 42.4688Q223.844 48.0938 226.453 51.5Q229.062 54.9062 233.438 54.9062Q237.844 54.9062 240.438 51.4531Q243.031 48 243.031 41.7812Q243.031 36.2188 240.391 32.7656Q237.75 29.3125 233.375 29.3125Q229.094 29.3125 226.469 32.7188Q223.844 36.125 223.844 42.4688ZM276.938 55.6562Q273.562 59.625 267.031 59.625Q261.625 59.625 258.797 56.4844Q255.969 53.3438 255.938 47.1875L255.938 25.1875L261.719 25.1875L261.719 47.0312Q261.719 54.7188 267.969 54.7188Q274.594 54.7188 276.781 49.7812L276.781 25.1875L282.562 25.1875L282.562 59L277.062 59L276.938 55.6562ZM299.188 17L299.188 25.1875L305.5 25.1875L305.5 29.6562L299.188 29.6562L299.188 50.625Q299.188 52.6562 300.031 53.6719Q300.875 54.6875 302.906 54.6875Q303.906 54.6875 305.656 54.3125L305.656 59Q303.375 59.625 301.219 59.625Q297.344 59.625 295.375 57.2812Q293.406 54.9375 293.406 50.625L293.406 29.6562L287.25 29.6562L287.25 25.1875L293.406 25.1875L293.406 17L299.188 17Z" fill="#0096F2" fill-opacity="1.000000" transform="matrix(1 0 0 1 185.912 83.1572)"/></svg>