<svg xmlns="http://www.w3.org/2000/svg" xmlns:xlink="http://www.w3.org/1999/xlink" width="173.530136" height="182.856323" viewBox="0 0 173.53 182.856"><path d="M0 0L20 143" fill="none" stroke="#000000" stroke-opacity="1.000000" stroke-width="4" stroke-linejoin="round" stroke-linecap="round" stroke-dasharray="0 0" transform="matrix(1 0 0 1 8.75336 8.75335)"/><path d="M0 13L18 0" fill="none" stroke="#000000" stroke-opacity="1.000000" stroke-width="4" stroke-linejoin="round" stroke-linecap="round" stroke-dasharray="0 0" transform="matrix(1 0 0 1 28.7592 139.6)"/><path d="M0 0L17.1224 24.9054" fill="none" stroke="#000000" stroke-opacity="1.000000" stroke-width="4" stroke-linejoin="round" stroke-linecap="round" stroke-dasharray="0 0" transform="matrix(1 0 0 1 47.7533 139.588)"/><path d="M0 147L22 0" fill="none" stroke="#FFFFFF" stroke-opacity="1.000000" stroke-width="4" stroke-linejoin="round" stroke-linecap="round" stroke-dasharray="0 0" transform="matrix(1 0 0 1 64.7651 18.6155)"/><path d="M0 0L20 156" fill="none" stroke="#FFFFFF" stroke-opacity="1.000000" stroke-width="4" stroke-linejoin="round" stroke-linecap="round" stroke-dasharray="0 0" transform="matrix(1 0 0 1 87.2563 18.0679)"/><path d="M0 42L17 0" fill="none" stroke="#FFFFFF" stroke-opacity="1.000000" stroke-width="4" stroke-linejoin="round" stroke-linecap="round" stroke-dasharray="0 0" transform="matrix(1 0 0 1 107.748 132.103)"/><path d="M0 16L16 0" fill="none" stroke="#FFFFFF" stroke-opacity="1.000000" stroke-width="4" stroke-linejoin="round" stroke-linecap="round" stroke-dasharray="0 0" transform="matrix(1 0 0 1 125.262 115.588)"/><path d="M0 0L23 3" fill="none" stroke="#FFFFFF" stroke-opacity="1.000000" stroke-width="4" stroke-linejoin="round" stroke-linecap="round" stroke-dasharray="0 0" transform="matrix(1 0 0 1 141.777 115.553)"/></svg>