<svg xmlns="http://www.w3.org/2000/svg" xmlns:xlink="http://www.w3.org/1999/xlink" width="193.530090" height="202.856354" viewBox="0 0 193.53 202.856"><path d="M0 0L20 143" fill="none" stroke="#00AB7D" stroke-opacity="1.000000" stroke-width="9" stroke-linejoin="round" stroke-linecap="round" stroke-dasharray="0 0" transform="matrix(1 0 0 1 18.7534 18.7534)"/><path d="M0 13L18 0" fill="none" stroke="#00AB7D" stroke-opacity="1.000000" stroke-width="9" stroke-linejoin="round" stroke-linecap="round" stroke-dasharray="0 0" transform="matrix(1 0 0 1 38.7592 149.6)"/><path d="M0 0L17.1224 24.9054" fill="none" stroke="#00AB7D" stroke-opacity="1.000000" stroke-width="9" stroke-linejoin="round" stroke-linecap="round" stroke-dasharray="0 0" transform="matrix(1 0 0 1 57.7533 149.588)"/><path d="M0 147L22 0" fill="none" stroke="#0096F2" stroke-opacity="1.000000" stroke-width="9" stroke-linejoin="round" stroke-linecap="round" stroke-dasharray="0 0" transform="matrix(1 0 0 1 74.7651 27.1089)"/><path d="M0 0L20 156" fill="none" stroke="#0096F2" stroke-opacity="1.000000" stroke-width="9" stroke-linejoin="round" stroke-linecap="round" stroke-dasharray="0 0" transform="matrix(1 0 0 1 97.2563 28.0679)"/><path d="M0 42L17 0" fill="none" stroke="#0096F2" stroke-opacity="1.000000" stroke-width="9" stroke-linejoin="round" stroke-linecap="round" stroke-dasharray="0 0" transform="matrix(1 0 0 1 117.748 142.103)"/><path d="M0 16L16 0" fill="none" stroke="#0096F2" stroke-opacity="1.000000" stroke-width="9" stroke-linejoin="round" stroke-linecap="round" stroke-dasharray="0 0" transform="matrix(1 0 0 1 135.262 125.588)"/><path d="M0 0L23 3" fill="none" stroke="#0096F2" stroke-opacity="1.000000" stroke-width="9" stroke-linejoin="round" stroke-linecap="round" stroke-dasharray="0 0" transform="matrix(1 0 0 1 151.777 125.553)"/></svg>