<svg xmlns="http://www.w3.org/2000/svg" xmlns:xlink="http://www.w3.org/1999/xlink" width="679.855347" height="203.517014" viewBox="0 0 679.855 203.517"><path d="M0 0L20 143" fill="none" stroke="#00AB7D" stroke-opacity="1.000000" stroke-width="9" stroke-linejoin="round" stroke-linecap="round" stroke-dasharray="0 0" transform="matrix(1 0 0 1 18.7341 18.7341)"/><path d="M0 13L18 0" fill="none" stroke="#00AB7D" stroke-opacity="1.000000" stroke-width="9" stroke-linejoin="round" stroke-linecap="round" stroke-dasharray="0 0" transform="matrix(1 0 0 1 38.74 149.581)"/><path d="M0 0L17.1224 24.9054" fill="none" stroke="#00AB7D" stroke-opacity="1.000000" stroke-width="9" stroke-linejoin="round" stroke-linecap="round" stroke-dasharray="0 0" transform="matrix(1 0 0 1 57.7341 149.569)"/><path d="M0 147L22 0" fill="none" stroke="#0096F2" stroke-opacity="1.000000" stroke-width="9" stroke-linejoin="round" stroke-linecap="round" stroke-dasharray="0 0" transform="matrix(1 0 0 1 74.7459 27.0896)"/><path d="M0 0L20 156" fill="none" stroke="#0096F2" stroke-opacity="1.000000" stroke-width="9" stroke-linejoin="round" stroke-linecap="round" stroke-dasharray="0 0" transform="matrix(1 0 0 1 97.2371 28.7829)"/><path d="M0 42L17 0" fill="none" stroke="#0096F2" stroke-opacity="1.000000" stroke-width="9" stroke-linejoin="round" stroke-linecap="round" stroke-dasharray="0 0" transform="matrix(1 0 0 1 117.728 142.084)"/><path d="M0 16L16 0" fill="none" stroke="#0096F2" stroke-opacity="1.000000" stroke-width="9" stroke-linejoin="round" stroke-linecap="round" stroke-dasharray="0 0" transform="matrix(1 0 0 1 135.243 125.569)"/><path d="M0 0L23 3" fill="none" stroke="#0096F2" stroke-opacity="1.000000" stroke-width="9" stroke-linejoin="round" stroke-linecap="round" stroke-dasharray="0 0" transform="matrix(1 0 0 1 151.758 125.534)"/><path d="M1.49414 45.7588L1.49414 30.0044L54.0088 30.0044L54.0088 45.7588L38.2544 45.7588L38.2544 93L17.2485 93L17.2485 45.7588L1.49414 45.7588ZM57.7544 93L57.7544 48L78.7603 48L78.7603 93L57.7544 93ZM59.2486 43.4956L59.2486 30.0044L77.2442 30.0044L77.2442 43.4956L59.2486 43.4956ZM87.0074 93L87.0074 48L106.497 48L106.497 54.5259Q111.529 47.2529 120.01 47.2529Q130.052 47.2529 133.567 55.5806Q138.665 47.2529 147.74 47.2529Q154.573 47.2529 158.66 51.4937Q162.747 55.7344 162.747 63.7544L162.747 93L142.51 93L142.51 68.2588Q142.51 64.9409 141.741 63.6006Q140.994 62.2603 139.5 62.2603Q137.918 62.2603 136.951 63.3809Q135.984 64.5015 134.996 66.8306L134.996 93L114.759 93L114.759 68.2588Q114.759 64.9409 113.99 63.6006Q113.243 62.2603 111.749 62.2603Q110.167 62.2603 109.2 63.3809Q108.233 64.5015 107.244 66.8306L107.244 93L87.0074 93ZM175.595 87.5947Q168.366 80.6953 168.366 70.5Q168.366 60.3047 175.595 53.4053Q182.846 46.5059 194.624 46.5059Q204.907 46.5059 211.762 52.4385Q218.618 58.3491 218.618 69.0059Q218.618 70.5 218.42 72.0161Q218.244 73.5103 218.025 74.2573L217.871 75.0044L187.878 75.0044Q189.965 81.0029 197.634 81.0029Q204.907 81.0029 209.631 77.9927L214.135 88.4956Q213.894 88.7153 213.41 89.1328Q212.927 89.5503 211.147 90.605Q209.389 91.6597 207.324 92.4507Q205.28 93.2197 201.831 93.8569Q198.381 94.4941 194.624 94.4941Q182.846 94.4941 175.595 87.5947ZM187.417 66.7427L200.622 66.7427Q200.622 63.7544 199.04 61.8867Q197.48 59.9971 194.624 59.9971Q188.779 59.9971 187.417 66.7427Z" fill="#00AB7D" fill-opacity="1.000000" transform="matrix(1 0 0 1 182.956 44.2284)"/><path d="M223.116 87.0015L231.378 72.3677Q235.509 75.1582 240.98 76.96Q246.451 78.7397 250.868 78.7397Q256.866 78.7397 256.866 75.7515Q256.866 73.0488 253.131 71.9941Q242.694 68.918 237.377 66.3691Q224.632 60.2168 224.632 49.1206Q224.632 43.8691 226.874 39.8262Q229.115 35.7832 233.004 33.3442Q236.915 30.9053 241.793 29.7188Q246.671 28.5103 252.384 28.5103Q258.448 28.5103 264.623 30.2021Q270.819 31.8721 273.785 33.3442Q276.752 34.7944 278.619 36.0029L271.127 49.4941Q267.457 46.8794 262.425 45.561Q257.394 44.2427 253.131 44.2427Q247.88 44.2427 247.88 47.2529Q247.88 48.5273 249 49.5381Q250.121 50.5488 251.615 51.0103Q260.843 53.7788 265.128 55.4927Q267.457 56.3936 269.127 57.2285Q270.819 58.0415 273.038 59.6235Q275.257 61.2056 276.664 63.0732Q278.092 64.9409 279.103 67.8413Q280.135 70.7197 280.135 74.2573Q280.135 79.355 277.762 83.376Q275.389 87.375 271.346 89.748Q267.303 92.0991 262.316 93.2856Q257.328 94.4941 251.615 94.4941Q241.947 94.4941 234.103 91.9233Q226.28 89.3306 223.116 87.0015ZM291.845 87.5947Q284.616 80.6953 284.616 70.5Q284.616 60.3047 291.845 53.4053Q299.096 46.5059 310.874 46.5059Q316.499 46.5059 321.179 47.8242Q325.881 49.1206 327.749 50.395L329.616 51.7573L323.618 63.7544Q320.102 61.4912 314.631 61.4912Q310.72 61.4912 308.171 63.9741Q305.622 66.457 305.622 70.5Q305.622 74.543 308.171 77.0259Q310.72 79.5088 314.631 79.5088Q320.102 79.5088 323.618 77.2456L329.616 89.2427Q329.397 89.4844 328.913 89.814Q328.43 90.1436 326.694 91.0444Q324.98 91.9453 322.937 92.6704Q320.915 93.3735 317.641 93.9229Q314.389 94.4941 310.874 94.4941Q299.096 94.4941 291.845 87.5947ZM338.72 87.5947Q331.491 80.6953 331.491 70.5Q331.491 60.3047 338.72 53.4053Q345.971 46.5059 357.749 46.5059Q369.526 46.5059 376.755 53.4053Q384.006 60.3047 384.006 70.5Q384.006 80.6953 376.755 87.5947Q369.526 94.4941 357.749 94.4941Q345.971 94.4941 338.72 87.5947ZM352.805 64.5894Q351.003 66.8965 351.003 70.5Q351.003 74.1035 352.805 76.4326Q354.607 78.7397 357.749 78.7397Q360.891 78.7397 362.693 76.4326Q364.494 74.1035 364.494 70.5Q364.494 66.8965 362.693 64.5894Q360.891 62.2603 357.749 62.2603Q354.607 62.2603 352.805 64.5894ZM440.633 48L440.633 93L421.121 93L421.121 85.3535Q416.023 93.7471 406.135 93.7471Q398.709 93.7471 394.16 89.1768Q389.634 84.6064 389.634 76.4985L389.634 48L410.618 48L410.618 71.9941Q410.618 75.29 411.519 76.6523Q412.42 77.9927 414.375 77.9927Q418.045 77.9927 419.627 72.9829L419.627 48L440.633 48ZM445.869 59.9971L445.869 48L451.868 48L451.868 34.5088L470.633 34.5088L470.633 48L481.136 48L481.136 59.9971L471.38 59.9971L471.38 75.0044Q471.38 77.6191 472.456 78.9375Q473.555 80.2559 475.115 80.2559Q477.532 80.2559 480.366 77.9927L484.124 88.4956Q482.168 90.5171 477.62 92.5166Q473.094 94.4941 466.875 94.4941Q459.383 94.4941 455.252 90.4512Q451.121 86.4082 451.121 77.9927L451.121 59.9971L445.869 59.9971Z" fill="#0096F2" fill-opacity="1.000000" transform="matrix(1 0 0 1 182.956 44.2284)"/></svg>